<?xml version="1.0" encoding="UTF-8" standalone="no"?>
<svg xmlns="http://www.w3.org/2000/svg" version="1.1" xmlns:xlink="http://www.w3.org/1999/xlink" xmlns:svgjs="http://svgjs.dev/svgjs" width="1000" height="1000" viewBox="0 0 1000 1000"><g transform="matrix(1,0,0,1,-0.14221556886212738,-0.14221556886229791)"><svg viewBox="0 0 334 334" data-background-color="#ffffff" preserveAspectRatio="xMidYMid meet" height="1000" width="1000" xmlns="http://www.w3.org/2000/svg" xmlns:xlink="http://www.w3.org/1999/xlink"><g id="tight-bounds" transform="matrix(1,0,0,1,0.04749999999998522,0.04750000000001364)"><svg viewBox="0 0 333.90454557049503 333.90454557049503" height="333.90454557049503" width="333.90454557049503"><g><svg></svg></g><g><svg viewBox="0 0 333.90454557049503 333.90454557049503" height="333.90454557049503" width="333.90454557049503"><g><path d="M0 166.952c0-92.205 74.747-166.952 166.952-166.952 92.205 0 166.952 74.747 166.953 166.952 0 92.205-74.747 166.952-166.953 166.953-92.205 0-166.952-74.747-166.952-166.953zM166.952 316.63c82.665 0 149.677-67.013 149.678-149.678 0-82.665-67.013-149.677-149.678-149.677-82.665 0-149.677 67.013-149.677 149.677 0 82.665 67.013 149.677 149.677 149.678z" data-fill-palette-color="tertiary" fill="#111111" stroke="transparent"></path><ellipse rx="160.27418187383762" ry="160.27418187383762" cx="166.95227278524752" cy="166.95227278524752" fill="#111111" stroke="transparent" stroke-width="0" fill-opacity="1" data-fill-palette-color="tertiary"></ellipse></g><g transform="matrix(1,0,0,1,88.32080427209763,71.17305217166897)"><svg viewBox="0 0 157.26293702629977 191.5584412271571" height="191.5584412271571" width="157.26293702629977"><g><svg viewBox="0 0 157.26293702629977 191.5584412271571" height="191.5584412271571" width="157.26293702629977"><g><svg viewBox="0 0 157.26293702629977 191.5584412271571" height="191.5584412271571" width="157.26293702629977"><g id="textblocktransform"><svg viewBox="0 0 157.26293702629977 191.5584412271571" height="191.5584412271571" width="157.26293702629977" id="textblock"><g><svg viewBox="0 0 157.26293702629977 191.5584412271571" height="191.5584412271571" width="157.26293702629977"><g transform="matrix(1,0,0,1,0,0)"><svg width="157.26293702629977" viewBox="0.8 -36.5 34.85 42.45" height="191.5584412271571" data-palette-color="#ffffff"><path d="M26.9 5.95L26.9 5.95 3.1 5.95Q1.9 5.95 1.35 5.4 0.8 4.85 0.8 3.65L0.8 3.65 0.8-4.95Q0.8-8.55 1.65-10.65 2.5-12.75 4-14L4-14 10.45-19.45Q10.85-19.8 11.3-20.08 11.75-20.35 12.25-20.6L12.25-20.6 5-20.6Q3.8-20.6 3.25-21.15 2.7-21.7 2.7-22.9L2.7-22.9 2.7-28.75Q2.7-29.4 2.88-29.85 3.05-30.3 3.4-30.6L3.4-30.6 9.85-36.05Q10.1-36.25 10.53-36.38 10.95-36.5 11.45-36.5L11.45-36.5 26.2-36.5Q30.7-36.5 33.1-34.23 35.5-31.95 35.5-27.7L35.5-27.7 35.5-23Q35.5-20.7 34.75-19.05 34-17.4 32.6-16.25L32.6-16.25 26.15-10.85Q25.85-10.65 25.53-10.4 25.2-10.15 24.85-9.95L24.85-9.95 33.35-9.95Q34.55-9.95 35.1-9.4 35.65-8.85 35.65-7.65L35.65-7.65 35.65-1.8Q35.65-1.15 35.48-0.7 35.3-0.25 34.95 0.05L34.95 0.05 28.45 5.45Q28.25 5.65 27.83 5.8 27.4 5.95 26.9 5.95ZM9.55 0L33.35 0Q34.3 0 34.73-0.43 35.15-0.85 35.15-1.8L35.15-1.8 35.15-7.65Q35.15-8.6 34.73-9.03 34.3-9.45 33.35-9.45L33.35-9.45 19.1-9.45 19.1-10.5Q19.1-11.3 19.38-11.55 19.65-11.8 20.4-12L20.4-12 27.2-14.15Q30.8-15.25 32.9-17.25 35-19.25 35-23L35-23 35-27.7Q35-31.75 32.73-33.88 30.45-36 26.2-36L26.2-36 11.45-36Q10.5-36 10.08-35.58 9.65-35.15 9.65-34.2L9.65-34.2 9.65-28.35Q9.65-27.4 10.08-26.98 10.5-26.55 11.45-26.55L11.45-26.55 22.3-26.55Q23.05-26.55 23.35-26.28 23.65-26 23.65-25.25L23.65-25.25Q23.65-24.45 23.38-24.05 23.1-23.65 22.3-23.45L22.3-23.45 15.6-21.35Q13.9-20.85 12.45-20.15 11-19.45 9.95-18.25 8.9-17.05 8.33-15.18 7.75-13.3 7.75-10.4L7.75-10.4 7.75-1.8Q7.75-0.85 8.18-0.43 8.6 0 9.55 0L9.55 0ZM15.95-16.4L15.95-16.4 27.6-20.25Q28.25-20.5 28.65-21.08 29.05-21.65 29.05-22.6L29.05-22.6 29.05-27.15Q29.05-29.45 27.75-30.23 26.45-31 24.2-31L24.2-31 14.15-31 14.15-31.5 24.2-31.5Q26.75-31.5 28.15-30.58 29.55-29.65 29.55-27.15L29.55-27.15 29.55-22.6Q29.55-21.45 29.08-20.8 28.6-20.15 27.8-19.8L27.8-19.8 16.15-15.95Q14.75-15.45 14.2-14.73 13.65-14 13.65-12.3L13.65-12.3 13.65-5 30.65-5 30.65-4.5 13.2-4.5 13.2-12.3Q13.2-14.15 13.8-15.03 14.4-15.9 15.95-16.4Z" opacity="1" transform="matrix(1,0,0,1,0,0)" fill="#ffffff" class="wordmark-text-0" data-fill-palette-color="quaternary" id="text-0"></path></svg></g></svg></g></svg></g></svg></g><g></g></svg></g></svg></g></svg></g><defs></defs></svg><rect width="333.90454557049503" height="333.90454557049503" fill="none" stroke="none" visibility="hidden"></rect></g></svg></g></svg>